<?xml version="1.0" encoding="utf-8"?>
<!-- Generator: Adobe Illustrator 26.3.1, SVG Export Plug-In . SVG Version: 6.00 Build 0)  -->
<svg version="1.1" id="圖層_1" xmlns="http://www.w3.org/2000/svg" xmlns:xlink="http://www.w3.org/1999/xlink" x="0px" y="0px"
	 width="500px" height="250px" viewBox="0 0 500 250" style="enable-background:new 0 0 500 250;" xml:space="preserve">
<polygon points="435.893,234.684 422.482,234.684 422.482,144.576 77.325,144.576 77.325,234.684 63.915,234.684 63.915,131.166 
	435.893,131.166 "/>
<g>
	<path d="M157.859,92.277l-3.205,10.772h-15.807l17.503-55.383h21.009l18.194,55.383h-16.95l-3.362-10.772H157.859z M172.396,80.248
		c-2.603-8.699-4.734-16.439-5.988-21.838h-0.219c-1.283,5.969-3.402,13.869-5.644,21.838H172.396z"/>
	<path d="M262.805,84.832c-2.03,11.58-10.526,19.248-25.724,19.248c-18.141,0-26.903-12.245-26.903-28.317
		c0-15.679,8.66-29.129,27.685-29.129c16.278,0,23.688,9.462,24.778,19.052h-16.105c-0.74-4.001-3.051-7.648-9.046-7.648
		c-7.887,0-10.578,7.488-10.578,17.159c0,8.781,2.239,17.451,10.758,17.451c6.453,0,8.257-4.685,8.948-7.815H262.805z"/>
	<path d="M292.137,103.049l-13.348-55.383h17.077c3.749,21.14,5.022,30.367,5.671,39.167h0.249
		c2.282-12.016,5.638-26.205,8.463-39.167h14.432c2.482,11.2,6.158,26.598,8.09,38.496h0.249c1.369-11.489,5.003-29.97,6.381-38.496
		h15.591l-14.01,55.383h-16.593c-2.449-11.495-5.661-24.565-7.694-35.317h-0.193c-1.922,10.467-5.379,24.627-7.773,35.317H292.137z"
		/>
</g>
<polygon points="212.605,15.22 227.042,15.22 237.372,33.266 227.558,33.266 "/>
<rect x="364.193" y="26.305" transform="matrix(0.7071 0.7071 -0.7071 0.7071 132.231 -252.7022)" width="13.921" height="13.921"/>
</svg>
